<svg version="1.0" xmlns="http://www.w3.org/2000/svg"
 width="30px" height="30px" viewBox="0 0 512.000000 512.000000"
 preserveAspectRatio="xMidYMid meet" fill="#ffffff">

<g transform="translate(0.000000,512.000000) scale(0.100000,-0.100000)" stroke="none">
<path d="M1150 5109 c-150 -29 -291 -174 -320 -328 -6 -33 -10 -297 -10 -677
l0 -623 -96 -45 c-630 -298 -897 -1036 -603 -1665 140 -300 410 -543 724 -652
544 -188 1156 25 1463 509 l47 74 5 -628 c5 -617 6 -630 27 -694 61 -178 209
-315 391 -361 72 -18 106 -20 361 -17 l281 3 27 27 c38 39 38 97 0 136 l-27
27 -293 6 c-183 3 -305 10 -327 17 -106 36 -206 149 -229 258 -9 44 -11 219
-9 684 l3 625 29 63 c37 79 114 152 191 181 44 17 79 21 168 21 188 0 218 19
227 143 l5 69 120 -96 c66 -53 136 -101 155 -106 21 -6 262 -10 607 -10 554 0
574 -1 628 -21 77 -29 154 -102 191 -181 l29 -63 3 -625 c2 -465 0 -640 -9
-684 -23 -109 -123 -222 -229 -258 -21 -7 -139 -14 -297 -17 l-263 -6 -27 -27
c-38 -39 -38 -97 0 -136 l27 -27 251 -3 c225 -3 259 -1 331 17 102 26 177 69
254 145 75 76 119 151 144 252 19 73 20 111 20 704 0 401 -4 648 -11 686 -16
88 -78 210 -141 273 -137 140 -262 180 -555 181 l-113 0 0 1234 c0 792 -4
1253 -10 1287 -30 159 -170 299 -329 329 -67 13 -2746 12 -2811 -1z m2815
-208 c51 -23 93 -65 116 -116 16 -34 19 -67 19 -212 l0 -173 -1540 0 -1540 0
0 173 c0 145 3 178 19 212 23 51 65 93 116 116 38 18 102 19 1405 19 1303 0
1367 -1 1405 -19z m135 -1671 l0 -970 -295 0 -296 0 -172 138 c-95 76 -183
146 -197 155 -36 25 -93 22 -127 -7 -28 -24 -28 -26 -31 -155 -3 -91 -7 -131
-15 -131 -55 -1 -192 -22 -232 -35 -70 -24 -152 -75 -209 -132 -31 -31 -46
-41 -43 -28 4 11 11 68 17 127 18 181 -15 408 -84 577 l-26 65 154 155 c84 86
157 166 161 179 3 12 1 38 -5 57 -21 63 -33 65 -370 65 l-301 0 -72 49 c-250
169 -549 241 -864 207 l-73 -8 0 331 0 331 1540 0 1540 0 0 -970z m-2750 120
c193 -20 364 -85 523 -197 l82 -58 204 -3 203 -4 -96 -97 c-114 -117 -115
-122 -57 -250 104 -227 124 -489 55 -729 -52 -180 -143 -330 -281 -462 -143
-138 -287 -219 -471 -266 -641 -165 -1276 307 -1309 971 -24 489 302 934 777
1064 61 17 159 32 260 39 8 1 58 -3 110 -8z"/>
<path d="M1255 4727 c-48 -48 -48 -86 0 -134 31 -31 40 -35 72 -30 117 19 117
175 0 194 -32 5 -41 1 -72 -30z"/>
<path d="M1664 4751 c-32 -14 -64 -60 -64 -92 0 -17 11 -41 29 -61 60 -67 166
-28 166 62 0 66 -72 116 -131 91z"/>
<path d="M2045 4751 c-64 -27 -81 -110 -32 -158 60 -61 162 -19 162 67 0 66
-72 116 -130 91z"/>
<path d="M2545 4751 c-64 -27 -81 -110 -32 -158 l27 -28 630 -3 629 -2 33 29
c27 24 33 36 33 71 0 35 -6 47 -33 71 l-32 29 -618 -1 c-339 0 -626 -4 -637
-8z"/>
<path d="M2430 3873 c-81 -31 -89 -148 -13 -182 15 -7 108 -11 248 -11 140 0
233 4 248 11 60 27 71 112 21 160 -25 24 -27 24 -257 26 -128 1 -239 -1 -247
-4z"/>
<path d="M3235 3866 c-50 -22 -68 -82 -40 -135 24 -48 50 -52 303 -49 l232 3
26 27 c37 37 37 99 0 136 l-26 27 -233 2 c-177 2 -239 0 -262 -11z"/>
<path d="M2948 3385 c-34 -19 -48 -44 -48 -85 0 -42 15 -67 50 -85 23 -12 69
-15 214 -15 112 0 194 4 209 11 60 27 71 112 21 160 -25 23 -30 24 -222 26
-160 2 -202 0 -224 -12z"/>
<path d="M3645 3389 c-98 -57 -50 -205 59 -185 108 20 104 176 -5 192 -18 2
-43 -1 -54 -7z"/>
<path d="M2790 2908 c-14 -7 -33 -30 -43 -51 -18 -36 -18 -38 0 -74 29 -60 43
-63 287 -63 l218 0 35 35 c31 31 35 40 30 72 -4 20 -18 48 -32 62 l-25 26
-223 3 c-164 2 -228 -1 -247 -10z"/>
<path d="M3545 2911 c-64 -28 -81 -110 -32 -158 26 -27 32 -28 122 -28 89 0
96 2 121 27 37 37 37 99 0 136 -24 24 -35 27 -109 29 -45 2 -91 -1 -102 -6z"/>
<path d="M661 2659 c-66 -13 -131 -48 -183 -100 -179 -179 -125 -478 107 -586
52 -24 72 -28 150 -28 78 0 98 4 153 29 123 57 166 144 103 207 -41 41 -88 39
-148 -3 -40 -29 -53 -33 -108 -33 -49 0 -70 5 -91 21 -103 77 -95 222 17 282
58 31 115 26 174 -16 56 -40 79 -46 119 -32 42 14 66 48 66 95 0 64 -106 143
-220 165 -60 11 -77 11 -139 -1z"/>
<path d="M1237 2656 c-133 -48 -194 -197 -132 -323 33 -66 83 -104 165 -123
58 -15 65 -19 65 -41 0 -23 -3 -24 -95 -30 -100 -6 -132 -18 -149 -56 -20 -43
-13 -82 18 -114 29 -29 31 -29 143 -29 89 0 122 4 153 19 148 69 182 266 64
378 -39 37 -96 63 -137 63 -32 0 -52 16 -52 41 0 23 20 29 106 29 110 0 154
28 154 100 0 41 -24 76 -62 89 -43 15 -195 13 -241 -3z"/>
<path d="M1790 2661 c-44 -14 -84 -38 -112 -68 -86 -90 -79 -247 15 -330 34
-30 60 -41 147 -61 28 -7 35 -13 35 -33 0 -23 -2 -24 -95 -29 -130 -8 -162
-29 -162 -108 0 -28 7 -43 31 -64 30 -27 35 -28 139 -28 155 1 220 33 268 135
32 68 31 127 -3 196 -36 70 -96 116 -164 125 -60 8 -84 27 -69 55 9 16 22 19
96 19 102 0 137 15 154 64 14 43 5 77 -27 108 -22 21 -35 23 -126 25 -56 1
-113 -1 -127 -6z"/>
<path d="M2740 1432 c-19 -9 -40 -28 -47 -42 -16 -32 -18 -472 -2 -518 28 -80
138 -83 178 -5 6 12 11 53 11 92 l0 71 60 0 60 0 0 -71 c0 -75 10 -104 44
-131 48 -39 136 -8 151 54 3 13 5 132 3 266 l-3 242 -27 26 c-37 37 -99 37
-136 0 -24 -23 -27 -36 -30 -106 l-4 -80 -59 0 -59 0 0 75 c0 68 -3 77 -27
104 -36 38 -70 45 -113 23z"/>
<path d="M3355 1443 c-32 -8 -64 -44 -71 -79 -11 -57 35 -113 94 -114 l32 0 0
-181 c0 -187 4 -209 44 -241 43 -36 117 -16 145 39 7 14 11 89 11 202 l0 181
33 0 c52 1 97 49 97 104 0 14 -13 40 -29 58 l-29 33 -154 2 c-84 1 -162 -1
-173 -4z"/>
<path d="M3862 1430 c-18 -11 -37 -32 -42 -46 -6 -14 -10 -129 -10 -256 0
-187 3 -236 15 -263 30 -62 105 -74 154 -24 l31 31 0 115 c0 106 1 115 18 107
22 -10 82 -10 105 0 16 8 17 -1 17 -109 0 -116 0 -117 29 -146 49 -48 126 -35
156 26 12 27 15 76 15 267 0 255 -3 269 -57 301 -47 27 -83 15 -154 -50 l-59
-56 -55 52 c-50 47 -89 71 -118 71 -7 0 -27 -9 -45 -20z"/>
<path d="M4515 1436 c-56 -25 -60 -41 -63 -270 -4 -252 0 -290 38 -328 28 -28
29 -28 160 -28 l132 0 29 29 c22 23 29 39 29 68 0 65 -50 103 -135 103 l-43 0
-4 183 c-3 202 -10 225 -70 246 -38 13 -36 13 -73 -3z"/>
<path d="M3705 191 c-64 -27 -81 -110 -32 -158 60 -61 162 -19 162 67 0 66
-72 116 -130 91z"/>
</g>
</svg>
